<svg width="32" height="32" viewBox="0 0 32 32" fill="none" xmlns="http://www.w3.org/2000/svg">
<path d="M27.5728 22.7666L19.6841 5.84857C19.2357 4.88707 18.4237 4.14308 17.4268 3.78026C16.4298 3.41744 15.3296 3.46551 14.3681 3.91391C13.4066 4.3623 12.6626 5.17428 12.2998 6.17122C11.937 7.16817 11.985 8.26841 12.4334 9.2299L20.3228 26.1472C20.7711 27.1087 21.583 27.8528 22.5799 28.2156C23.5767 28.5785 24.6769 28.5305 25.6384 28.0822C26.5999 27.6339 27.344 26.822 27.7068 25.8252C28.0697 24.8283 28.0211 23.7281 27.5728 22.7666Z" stroke="white" stroke-width="2.66667"/>
<path d="M15.6253 17.6907L11.68 26.1493C11.458 26.6254 11.1444 27.0531 10.7571 27.408C10.3698 27.7629 9.91635 28.0381 9.42271 28.2177C8.92906 28.3974 8.40487 28.478 7.88005 28.4551C7.35524 28.4321 6.84008 28.306 6.364 28.084C5.40264 27.6356 4.65874 26.8238 4.29593 25.827C3.93312 24.8302 3.9811 23.7301 4.42933 22.7687L12.2493 6" stroke="white" stroke-width="2.66667" stroke-linecap="round"/>
<path d="M6.36538 28.0816C8.36754 29.0152 10.7475 28.149 11.6811 26.1468C12.6147 24.1446 11.7485 21.7647 9.74633 20.8311C7.74416 19.8975 5.36424 20.7637 4.43062 22.7659C3.497 24.768 4.36322 27.1479 6.36538 28.0816Z" stroke="white" stroke-width="2.66667"/>
</svg>
