<svg width="30" height="31" viewBox="0 0 30 31" fill="none" xmlns="http://www.w3.org/2000/svg">
<path d="M25.8453 21.8461L18.4497 5.98548C18.0293 5.08407 17.2681 4.38658 16.3335 4.04643C15.3988 3.70629 14.3674 3.75136 13.4659 4.17173C12.5645 4.5921 11.867 5.35333 11.5269 6.28796C11.1868 7.2226 11.2318 8.25407 11.6522 9.15548L19.0484 25.0155C19.4687 25.9169 20.2299 26.6144 21.1645 26.9546C22.099 27.2948 23.1305 27.2498 24.0319 26.8295C24.9333 26.4093 25.6308 25.6481 25.971 24.7135C26.3112 23.779 26.2656 22.7475 25.8453 21.8461Z" stroke="#299AE6" stroke-width="2.5"/>
<path d="M14.6483 17.085L10.9495 25.015C10.7414 25.4613 10.4474 25.8623 10.0843 26.195C9.72117 26.5277 9.29609 26.7857 8.8333 26.9541C8.37051 27.1225 7.87908 27.1981 7.38706 27.1766C6.89505 27.1551 6.41209 27.0369 5.96576 26.8287C5.06449 26.4084 4.36708 25.6473 4.02694 24.7128C3.68681 23.7783 3.73179 22.747 4.15201 21.8456L11.4833 6.125" stroke="#299AE6" stroke-width="2.5" stroke-linecap="round"/>
<path d="M5.96535 26.8274C7.84237 27.7027 10.0735 26.8906 10.9488 25.0136C11.8241 23.1366 11.012 20.9054 9.13498 20.0301C7.25796 19.1549 5.02678 19.9669 4.15151 21.844C3.27624 23.721 4.08832 25.9522 5.96535 26.8274Z" stroke="#299AE6" stroke-width="2.5"/>
</svg>
