<svg width="41" height="41" viewBox="0 0 41 41" fill="none" xmlns="http://www.w3.org/2000/svg">
<path d="M21.6819 4.7536L36.6819 19.7536C37.7319 20.8036 36.9886 22.5986 35.5036 22.5986H33.8369V32.5986C33.8369 33.9247 33.3101 35.1965 32.3724 36.1341C31.4347 37.0718 30.163 37.5986 28.8369 37.5986H27.1702V25.9319C27.1703 24.6566 26.683 23.4294 25.8081 22.5015C24.9332 21.5736 23.7367 21.0151 22.4636 20.9403L22.1702 20.9319H18.8369C17.5108 20.9319 16.239 21.4587 15.3014 22.3964C14.3637 23.3341 13.8369 24.6059 13.8369 25.9319V37.5986H12.1702C10.8441 37.5986 9.57238 37.0718 8.6347 36.1341C7.69702 35.1965 7.17023 33.9247 7.17023 32.5986V22.5986H5.50356C4.02023 22.5986 3.27523 20.8036 4.32523 19.7536L19.3252 4.7536C19.6378 4.44115 20.0616 4.26563 20.5036 4.26562C20.9455 4.26562 21.3694 4.44115 21.6819 4.7536ZM22.1702 24.2653C22.6123 24.2653 23.0362 24.4409 23.3487 24.7534C23.6613 25.066 23.8369 25.4899 23.8369 25.9319V37.5986H17.1702V25.9319C17.1703 25.5237 17.3202 25.1297 17.5914 24.8246C17.8627 24.5196 18.2365 24.3247 18.6419 24.2769L18.8369 24.2653H22.1702Z" fill="#373737" fill-opacity="0.6"/>
</svg>
