<svg width="41" height="41" viewBox="0 0 41 41" fill="none" xmlns="http://www.w3.org/2000/svg">
<path d="M20.5007 20.099C19.3956 20.099 18.3358 19.66 17.5544 18.8786C16.773 18.0972 16.334 17.0374 16.334 15.9323C16.334 14.8272 16.773 13.7674 17.5544 12.986C18.3358 12.2046 19.3956 11.7656 20.5007 11.7656C21.6057 11.7656 22.6655 12.2046 23.4469 12.986C24.2283 13.7674 24.6673 14.8272 24.6673 15.9323C24.6673 16.4795 24.5595 17.0213 24.3502 17.5268C24.1408 18.0323 23.8338 18.4917 23.4469 18.8786C23.06 19.2655 22.6007 19.5724 22.0952 19.7818C21.5896 19.9912 21.0478 20.099 20.5007 20.099ZM20.5007 4.26562C17.4065 4.26562 14.439 5.49479 12.2511 7.68271C10.0631 9.87064 8.83398 12.8381 8.83398 15.9323C8.83398 24.6823 20.5007 37.599 20.5007 37.599C20.5007 37.599 32.1673 24.6823 32.1673 15.9323C32.1673 12.8381 30.9382 9.87064 28.7502 7.68271C26.5623 5.49479 23.5948 4.26563 20.5007 4.26562Z" fill="#373737" fill-opacity="0.6"/>
</svg>
